<?xml version="1.0" encoding="utf-8"?>
<!-- Generator: Adobe Illustrator 26.0.1, SVG Export Plug-In . SVG Version: 6.00 Build 0)  -->
<svg version="1.1" xmlns="http://www.w3.org/2000/svg" xmlns:xlink="http://www.w3.org/1999/xlink" x="0px" y="0px"
	 viewBox="0 0 221.4 67.3" style="enable-background:new 0 0 221.4 67.3;" xml:space="preserve">
<style type="text/css">
	.st0{fill:#FFFFFF;}
	.st1{fill:#FFD10C;}
	.st2{fill:#64B668;}
	.st3{fill:#E83C4A;}
	.st4{fill:#50C2E8;}
	.st5{fill:#020203;}
</style>
<g id="Camada_3">
	<path class="st0" d="M209.4,67.3H12c-6.6,0-12-5.4-12-12V12C0,5.4,5.4,0,12,0h197.4c6.6,0,12,5.4,12,12v43.3
		C221.4,61.9,216,67.3,209.4,67.3z"/>
</g>
<g id="Camada_1">
	<g>
		<g>
			<g>
				<path class="st1" d="M53.3,32.8l-8.4-4.9l-6.9,6.7l6.3,6.1l9-5.2c0.5-0.3,0.8-0.8,0.8-1.4C54.1,33.6,53.8,33.1,53.3,32.8z"/>
			</g>
		</g>
		<g>
			<g>
				<polygon class="st2" points="43.4,27.1 34.1,21.8 13.8,11.3 36.8,33.5 				"/>
			</g>
		</g>
		<g>
			<g>
				<polygon class="st3" points="14.1,57.6 34.2,46.6 42.8,41.6 36.8,35.8 				"/>
			</g>
		</g>
		<g>
			<g>
				<polygon class="st4" points="12.4,12.2 12.4,57.1 35.6,34.7 				"/>
			</g>
		</g>
	</g>
	<g>
		<g>
			<g>
				<path class="st5" d="M72.6,40.7h3.1v7c-0.9,0.7-2,1.3-3.2,1.7c-1.2,0.4-2.4,0.6-3.7,0.6c-1.8,0-3.4-0.4-4.8-1.2
					c-1.4-0.8-2.6-1.9-3.4-3.2c-0.8-1.4-1.2-2.9-1.2-4.6c0-1.7,0.4-3.3,1.2-4.6c0.8-1.4,2-2.4,3.4-3.2c1.4-0.8,3.1-1.2,4.9-1.2
					c1.5,0,2.8,0.2,4,0.7c1.2,0.5,2.2,1.2,3,2.1l-2.1,2c-1.3-1.3-3-2-4.8-2c-1.2,0-2.3,0.3-3.3,0.8c-1,0.5-1.7,1.2-2.3,2.2
					c-0.5,0.9-0.8,2-0.8,3.2c0,1.2,0.3,2.2,0.8,3.2c0.5,0.9,1.3,1.7,2.3,2.2c1,0.5,2.1,0.8,3.3,0.8c1.4,0,2.6-0.3,3.6-0.9V40.7z"/>
			</g>
			<g>
				<path class="st5" d="M82,49c-1.1-0.6-1.9-1.4-2.5-2.4c-0.6-1-0.9-2.2-0.9-3.6c0-1.3,0.3-2.5,0.9-3.5c0.6-1,1.5-1.8,2.5-2.4
					c1.1-0.6,2.3-0.9,3.7-0.9c1.4,0,2.6,0.3,3.7,0.9c1.1,0.6,1.9,1.4,2.5,2.4c0.6,1,0.9,2.2,0.9,3.5c0,1.3-0.3,2.5-0.9,3.6
					c-0.6,1-1.5,1.9-2.5,2.4c-1.1,0.6-2.3,0.9-3.7,0.9C84.3,49.8,83.1,49.6,82,49z M88.5,46c0.8-0.8,1.1-1.8,1.1-3
					c0-1.3-0.4-2.3-1.1-3c-0.8-0.8-1.7-1.2-2.9-1.2c-1.2,0-2.1,0.4-2.8,1.2c-0.7,0.8-1.1,1.8-1.1,3c0,1.3,0.4,2.3,1.1,3
					c0.7,0.8,1.7,1.2,2.8,1.2C86.8,47.2,87.8,46.8,88.5,46z"/>
			</g>
			<g>
				<path class="st5" d="M98.2,49c-1.1-0.6-1.9-1.4-2.5-2.4c-0.6-1-0.9-2.2-0.9-3.6c0-1.3,0.3-2.5,0.9-3.5c0.6-1,1.5-1.8,2.5-2.4
					c1.1-0.6,2.3-0.9,3.7-0.9c1.4,0,2.6,0.3,3.7,0.9c1.1,0.6,1.9,1.4,2.5,2.4c0.6,1,0.9,2.2,0.9,3.5c0,1.3-0.3,2.5-0.9,3.6
					c-0.6,1-1.5,1.9-2.5,2.4c-1.1,0.6-2.3,0.9-3.7,0.9C100.5,49.8,99.3,49.6,98.2,49z M104.7,46c0.8-0.8,1.1-1.8,1.1-3
					c0-1.3-0.4-2.3-1.1-3c-0.8-0.8-1.7-1.2-2.9-1.2c-1.2,0-2.1,0.4-2.8,1.2c-0.7,0.8-1.1,1.8-1.1,3c0,1.3,0.4,2.3,1.1,3
					c0.7,0.8,1.7,1.2,2.8,1.2C103,47.2,104,46.8,104.7,46z"/>
			</g>
			<g>
				<path class="st5" d="M125.3,36.3v11.4c0,4.7-2.4,7.1-7.2,7.1c-1.3,0-2.5-0.2-3.7-0.5c-1.2-0.3-2.1-0.8-2.9-1.4l1.4-2.4
					c0.6,0.5,1.3,0.9,2.2,1.2c0.9,0.3,1.8,0.4,2.7,0.4c1.5,0,2.6-0.3,3.2-1c0.7-0.7,1-1.7,1-3.1v-0.7c-0.5,0.6-1.2,1-2,1.3
					c-0.8,0.3-1.6,0.5-2.5,0.5c-1.3,0-2.4-0.3-3.5-0.8c-1-0.5-1.8-1.3-2.4-2.3c-0.6-1-0.9-2.1-0.9-3.4c0-1.3,0.3-2.4,0.9-3.4
					c0.6-1,1.4-1.7,2.4-2.3c1-0.5,2.2-0.8,3.5-0.8c1,0,1.9,0.2,2.6,0.5c0.8,0.3,1.5,0.8,2,1.5v-1.8H125.3z M121.1,45.3
					c0.8-0.7,1.1-1.6,1.1-2.8c0-1.1-0.4-2-1.1-2.7c-0.8-0.7-1.7-1.1-2.9-1.1c-1.2,0-2.2,0.4-3,1.1c-0.8,0.7-1.1,1.6-1.1,2.7
					c0,1.1,0.4,2.1,1.1,2.8c0.8,0.7,1.7,1.1,3,1.1C119.4,46.4,120.4,46,121.1,45.3z"/>
			</g>
			<g>
				<path class="st5" d="M129.5,31h3.1v18.6h-3.1V31z"/>
			</g>
			<g>
				<path class="st5" d="M149.3,44h-10.5c0.2,1,0.7,1.8,1.4,2.3c0.8,0.6,1.7,0.9,2.9,0.9c1.5,0,2.7-0.5,3.6-1.5l1.7,1.9
					c-0.6,0.7-1.4,1.3-2.3,1.6c-0.9,0.4-2,0.6-3.1,0.6c-1.5,0-2.8-0.3-3.9-0.9c-1.1-0.6-2-1.4-2.6-2.4c-0.6-1-0.9-2.2-0.9-3.6
					c0-1.3,0.3-2.5,0.9-3.5c0.6-1,1.4-1.9,2.5-2.4c1.1-0.6,2.2-0.9,3.6-0.9c1.3,0,2.5,0.3,3.5,0.9c1,0.6,1.8,1.4,2.4,2.4
					c0.6,1,0.9,2.3,0.9,3.6C149.3,43.3,149.3,43.6,149.3,44z M140,39.5c-0.7,0.6-1.1,1.4-1.3,2.4h7.6c-0.1-1-0.5-1.8-1.2-2.4
					c-0.7-0.6-1.5-0.9-2.6-0.9C141.5,38.6,140.7,38.9,140,39.5z"/>
			</g>
			<g>
				<path class="st5" d="M170.8,32.8c1.1,0.5,2,1.2,2.6,2.2c0.6,0.9,0.9,2.1,0.9,3.3c0,1.3-0.3,2.4-0.9,3.3
					c-0.6,0.9-1.5,1.7-2.6,2.2c-1.1,0.5-2.5,0.8-4,0.8h-4v5.1h-3.3V32.1h7.2C168.3,32.1,169.7,32.3,170.8,32.8z M169.9,40.9
					c0.7-0.6,1.1-1.5,1.1-2.6c0-1.1-0.4-2-1.1-2.6c-0.7-0.6-1.8-0.9-3.2-0.9h-3.8v7h3.8C168.1,41.8,169.2,41.5,169.9,40.9z"/>
			</g>
			<g>
				<path class="st5" d="M177.5,31h3.1v18.6h-3.1V31z"/>
			</g>
			<g>
				<path class="st5" d="M194.4,37.5c1,0.9,1.6,2.4,1.6,4.3v7.9h-3V48c-0.4,0.6-0.9,1-1.6,1.3c-0.7,0.3-1.6,0.5-2.6,0.5
					c-1,0-1.9-0.2-2.6-0.5c-0.8-0.3-1.3-0.8-1.7-1.4c-0.4-0.6-0.6-1.3-0.6-2.1c0-1.2,0.4-2.2,1.3-2.9c0.9-0.7,2.3-1.1,4.2-1.1h3.5
					v-0.2c0-0.9-0.3-1.7-0.8-2.2c-0.6-0.5-1.4-0.8-2.5-0.8c-0.8,0-1.5,0.1-2.2,0.4c-0.7,0.2-1.3,0.6-1.8,1l-1.2-2.3
					c0.7-0.5,1.5-0.9,2.5-1.2c1-0.3,2-0.4,3.1-0.4C191.9,36.1,193.4,36.6,194.4,37.5z M191.5,47c0.6-0.4,1-0.9,1.3-1.5v-1.6h-3.2
					c-1.8,0-2.7,0.6-2.7,1.8c0,0.6,0.2,1,0.7,1.4c0.5,0.3,1.1,0.5,1.9,0.5C190.2,47.6,190.9,47.4,191.5,47z"/>
			</g>
			<g>
				<path class="st5" d="M212.3,36.3L206,50.7c-0.6,1.5-1.3,2.5-2.1,3.1c-0.8,0.6-1.8,0.9-3,0.9c-0.7,0-1.3-0.1-2-0.3
					c-0.7-0.2-1.2-0.5-1.6-0.9l1.3-2.3c0.3,0.3,0.7,0.5,1.1,0.7c0.4,0.2,0.8,0.3,1.2,0.3c0.6,0,1-0.1,1.4-0.4c0.4-0.3,0.7-0.8,1-1.4
					l0.2-0.5l-5.9-13.5h3.3l4.2,9.9l4.2-9.9H212.3z"/>
			</g>
		</g>
	</g>
	<g>
		<path class="st5" d="M62,12.9c0.8-0.1,1.7-0.2,2.6-0.2c1.8,0,3,0.4,3.9,1.2c0.9,0.8,1.4,1.9,1.4,3.4c0,1.6-0.5,2.8-1.4,3.7
			c-0.9,0.9-2.4,1.4-4.2,1.4c-0.9,0-1.6,0-2.3-0.1V12.9z M63.2,21.3c0.3,0.1,0.8,0.1,1.3,0.1c2.7,0,4.1-1.5,4.1-4.1
			c0-2.3-1.3-3.7-3.9-3.7c-0.6,0-1.1,0.1-1.5,0.1V21.3z"/>
		<path class="st5" d="M72.7,12.7v9.6h-1.2v-9.6H72.7z"/>
		<path class="st5" d="M74.7,20.8c0.6,0.3,1.4,0.6,2.2,0.6c1.3,0,2-0.7,2-1.6c0-0.9-0.5-1.4-1.8-1.9c-1.6-0.6-2.5-1.4-2.5-2.7
			c0-1.5,1.2-2.6,3.1-2.6c1,0,1.7,0.2,2.1,0.5l-0.3,1c-0.3-0.2-1-0.5-1.8-0.5c-1.3,0-1.8,0.8-1.8,1.4c0,0.9,0.6,1.3,1.9,1.9
			c1.6,0.6,2.5,1.4,2.5,2.8c0,1.5-1.1,2.8-3.4,2.8c-0.9,0-1.9-0.3-2.5-0.6L74.7,20.8z"/>
		<path class="st5" d="M81.9,12.8c0.6-0.1,1.4-0.2,2.4-0.2c1.2,0,2.1,0.3,2.7,0.8c0.5,0.5,0.8,1.2,0.8,2c0,0.9-0.3,1.6-0.7,2.1
			c-0.7,0.7-1.7,1.1-2.9,1.1c-0.4,0-0.7,0-1-0.1v3.8h-1.2V12.8z M83.1,17.5c0.3,0.1,0.6,0.1,1,0.1c1.5,0,2.4-0.7,2.4-2.1
			c0-1.3-0.9-1.9-2.3-1.9c-0.5,0-1,0-1.2,0.1V17.5z"/>
		<path class="st5" d="M97.7,17.4c0,3.3-2,5.1-4.5,5.1c-2.5,0-4.3-2-4.3-4.9c0-3,1.9-5,4.5-5C96,12.6,97.7,14.6,97.7,17.4z
			 M90.2,17.6c0,2.1,1.1,3.9,3.1,3.9c2,0,3.1-1.8,3.1-4c0-1.9-1-3.9-3.1-3.9C91.2,13.6,90.2,15.5,90.2,17.6z"/>
		<path class="st5" d="M99.3,22.3v-9.6h1.4l3.1,4.9c0.7,1.1,1.3,2.1,1.7,3.1l0,0c-0.1-1.3-0.1-2.5-0.1-3.9v-4h1.2v9.6h-1.3l-3-4.9
			c-0.7-1.1-1.3-2.2-1.8-3.2l0,0c0.1,1.2,0.1,2.4,0.1,4v4.1H99.3z"/>
		<path class="st5" d="M111.4,10.5l-1.8,1.7h-1l1.3-1.7H111.4z M109.9,12.7v9.6h-1.2v-9.6H109.9z"/>
		<path class="st5" d="M114.2,22.3l-3.1-9.6h1.3l1.5,4.7c0.4,1.3,0.8,2.5,1,3.6h0c0.3-1.1,0.7-2.3,1.1-3.6l1.6-4.7h1.3l-3.4,9.6
			H114.2z"/>
		<path class="st5" d="M125,17.8h-3.7v3.5h4.2v1H120v-9.6h5.2v1h-3.9v3h3.7V17.8z"/>
		<path class="st5" d="M127,12.7h1.2v8.6h4.1v1H127V12.7z"/>
		<path class="st5" d="M136.8,22.3v-9.6h1.4l3.1,4.9c0.7,1.1,1.3,2.1,1.7,3.1l0,0c-0.1-1.3-0.1-2.5-0.1-3.9v-4h1.2v9.6h-1.3l-3-4.9
			c-0.7-1.1-1.3-2.2-1.8-3.2l0,0c0.1,1.2,0.1,2.4,0.1,4v4.1H136.8z"/>
		<path class="st5" d="M147.7,19.3l-1,3h-1.3l3.3-9.6h1.5l3.3,9.6h-1.3l-1-3H147.7z M150.8,18.3l-0.9-2.8c-0.2-0.6-0.4-1.2-0.5-1.8
			h0c-0.1,0.6-0.3,1.2-0.5,1.7l-0.9,2.8H150.8z"/>
	</g>
</g>
<g id="Camada_2">
</g>
</svg>
